# xmcd
# 
# Track frame offsets:
#     182
#     22747
#     45007
#     65105
#     88135
#     106715
#     136972
#     159597
#     185357
#     201337
#     223530
#     243472
#     261350
#     278010
#     297340
#     317440
#     333550
# 
# Disc length: 4632
# 
# Revision: 5
# Processed by: cddbd v1.5.2PL0 Copyright (c) Steve Scherf et al.
# Submitted via: fre:ac v1.1beta1pre5
# 
DISCID=f3121611
DTITLE=Kool and the Gang - Anthology
DYEAR=2001
DGENRE=Funk
TTITLE0=Celebration
TTITLE1=Get down on it
TTITLE2=Fresh
TTITLE3=Too hot
TTITLE4=Take my heart
TTITLE5=Let's go dancing
TTITLE6=Misled
TTITLE7=Cherish
TTITLE8=Ladies night
TTITLE9=Steppin'out
TTITLE10=Joanna
TTITLE11=In the heart
TTITLE12=Take it to the top
TTITLE13=Tonight
TTITLE14=No show
TTITLE15=Straight ahead
TTITLE16=Jungle Boogie
EXTD=2001
EXTT0=
EXTT1=
EXTT2=
EXTT3=
EXTT4=
EXTT5=
EXTT6=
EXTT7=
EXTT8=
EXTT9=
EXTT10=
EXTT11=
EXTT12=
EXTT13=
EXTT14=
EXTT15=
EXTT16=
PLAYORDER=
